{"glyphs":{"0":{"x_min":40,"x_max":561,"ha":600,"o":"m 411 304 l 411 304 q 411 370 397 415 q 383 459 358 481 q 333 503 299 503 l 299 503 q 266 503 241 481 q 216 458 203 414 q 189 370 189 304 l 189 304 q 189 204 218 154 q 247 104 299 104 l 299 104 q 353 104 382 154 q 411 204 411 304 z m 300 -15 l 300 -15 q 223 -15 165 21 q 106 56 73 127 q 40 198 40 304 l 40 304 q 40 410 74 481 q 108 551 167 587 q 225 622 300 622 l 300 622 q 374 622 433 587 q 492 551 527 480 q 561 409 561 304 l 561 304 q 561 198 528 127 q 494 56 435 21 q 376 -15 300 -15 z"},"1":{"x_min":11,"x_max":308,"ha":384,"o":"m 159 62 l 159 264 l 159 466 l 53 428 q 38 437 25 453 q 11 469 11 497 l 11 497 q 11 550 75 571 l 75 571 l 194 615 l 227 615 q 264 615 286 593 q 308 571 308 534 l 308 534 l 308 1 q 298 -2 280 -5 q 262 -8 241 -8 l 241 -8 q 199 -8 179 7 q 159 22 159 62 l 159 62 z"},"2":{"x_min":36,"x_max":476,"ha":519,"o":"m 59 526 l 59 526 q 59 557 82 579 q 105 600 145 611 q 185 622 238 622 l 238 622 q 313 622 365 599 q 416 575 443 534 q 469 492 469 439 l 469 439 q 469 386 439 336 q 409 285 346 232 l 346 232 l 207 116 l 461 116 q 466 108 471 93 q 476 77 476 59 l 476 59 q 476 28 462 14 q 448 0 425 0 l 425 0 l 76 0 q 57 13 47 34 q 36 55 36 81 l 36 81 q 36 111 49 132 q 61 152 76 166 l 76 166 l 224 297 q 278 344 298 374 q 318 404 318 431 l 318 431 q 318 464 294 484 q 269 503 223 503 l 223 503 q 182 503 150 490 q 117 476 96 462 l 96 462 q 81 472 70 488 q 59 504 59 526 z"},"3":{"x_min":27,"x_max":474,"ha":515,"o":"m 229 623 l 229 623 q 339 623 399 577 q 459 530 459 450 l 459 450 q 459 416 446 390 q 433 363 413 345 q 393 327 370 317 l 370 317 q 398 308 422 289 q 445 270 460 241 q 474 211 474 168 l 474 168 q 474 111 443 70 q 412 28 358 7 q 303 -15 231 -15 l 231 -15 q 166 -15 121 -2 q 75 10 51 33 q 27 55 27 82 l 27 82 q 27 106 39 124 q 50 142 67 151 l 67 151 q 89 136 124 120 q 158 104 213 104 l 213 104 q 267 104 296 125 q 325 146 325 181 l 325 181 q 325 215 301 234 q 277 253 223 253 l 223 253 l 132 253 q 125 263 121 278 q 116 292 116 311 l 116 311 q 116 331 121 346 q 125 361 132 370 l 132 370 l 221 370 q 267 370 288 387 q 309 404 309 436 l 309 436 q 309 467 283 486 q 257 504 207 504 l 207 504 q 165 504 133 493 q 100 482 79 467 l 79 467 q 64 478 54 494 q 43 510 43 531 l 43 531 q 43 561 66 581 q 89 601 132 612 q 174 623 229 623 z"},"4":{"x_min":30,"x_max":573,"ha":589,"o":"m 48 277 l 48 277 l 292 603 q 308 608 330 612 q 352 615 369 615 l 369 615 q 395 615 419 608 q 443 601 458 583 q 473 565 473 532 l 473 532 l 473 246 l 557 246 q 562 237 568 221 q 573 205 573 187 l 573 187 q 573 155 558 141 q 543 126 520 126 l 520 126 l 473 126 l 473 0 q 464 -1 445 -4 q 425 -8 408 -8 l 408 -8 q 370 -8 349 3 q 328 14 328 54 l 328 54 l 328 126 l 79 126 q 59 136 45 157 q 30 178 30 208 l 30 208 q 30 225 34 244 q 38 263 48 277 z m 185 246 l 335 246 l 336 465 l 333 465 l 185 246 z"},"5":{"x_min":50,"x_max":496,"ha":526,"o":"m 159 608 l 234 608 l 451 608 q 457 599 462 584 q 467 569 467 550 l 467 550 q 467 518 453 503 q 439 488 414 488 l 414 488 l 207 488 l 197 373 q 216 379 238 384 q 260 389 291 389 l 291 389 q 359 389 404 364 q 449 338 473 294 q 496 249 496 192 l 496 192 q 496 136 470 89 q 444 42 390 14 q 336 -15 252 -15 l 252 -15 q 192 -15 147 -2 q 101 10 76 33 q 50 56 50 88 l 50 88 q 50 113 65 131 q 80 149 97 157 l 97 157 q 124 137 158 120 q 192 103 243 103 l 243 103 q 295 103 321 129 q 346 154 346 191 l 346 191 q 346 227 322 250 q 298 273 251 273 l 251 273 q 222 273 201 266 q 180 258 157 247 l 157 247 q 113 249 88 271 q 62 293 62 337 l 62 337 l 62 351 q 62 358 63 370 l 63 370 l 76 526 q 79 564 100 586 q 121 608 159 608 l 159 608 z"},"6":{"x_min":40,"x_max":520,"ha":556,"o":"m 476 540 l 476 540 q 476 522 468 505 q 459 487 446 478 l 446 478 q 421 490 392 497 q 363 504 336 504 l 336 504 q 272 504 235 467 q 197 429 187 356 l 187 356 q 207 371 243 385 q 278 399 319 399 l 319 399 q 410 399 465 347 q 520 294 520 196 l 520 196 q 520 138 493 90 q 466 42 415 14 q 364 -15 288 -15 l 288 -15 q 213 -15 157 19 q 101 53 71 121 q 40 188 40 287 l 40 287 q 40 373 61 437 q 82 500 120 541 q 158 582 209 602 q 259 622 319 622 l 319 622 q 367 622 403 613 q 438 604 457 586 q 476 568 476 540 z m 289 103 l 289 103 q 328 103 350 129 q 371 154 371 196 l 371 196 q 371 238 349 261 q 326 284 288 284 l 288 284 q 260 284 234 273 q 208 261 193 242 l 193 242 l 194 225 q 194 164 221 134 q 247 103 289 103 z"},"7":{"x_min":21,"x_max":464,"ha":476,"o":"m 74 608 l 74 608 l 425 608 q 440 598 452 581 q 464 564 464 538 l 464 538 q 464 524 461 509 q 458 494 451 479 l 451 479 l 233 -6 q 221 -7 210 -7 l 210 -7 l 189 -7 q 151 -7 126 9 q 101 24 101 59 l 101 59 q 101 78 111 100 q 120 121 134 150 l 134 150 l 299 488 l 37 488 q 32 497 27 513 q 21 529 21 546 l 21 546 q 21 579 36 594 q 51 608 74 608 z"},"8":{"x_min":38,"x_max":529,"ha":562,"o":"m 139 319 l 139 319 q 110 333 90 355 l 90 355 q 53 392 53 450 l 53 450 q 53 504 82 543 q 111 582 163 603 q 214 624 282 624 l 282 624 q 390 624 452 578 q 513 531 513 451 l 513 451 q 513 392 479 358 l 479 358 q 455 333 422 317 l 422 317 q 439 310 456 300 l 456 300 q 488 281 509 249 q 529 216 529 165 l 529 165 q 529 108 498 67 q 467 26 412 5 q 357 -17 282 -17 l 282 -17 q 209 -17 154 5 q 99 27 69 68 q 38 109 38 166 l 38 166 q 38 218 62 254 q 86 289 123 311 l 123 311 q 131 315 139 319 z m 270 268 l 270 268 q 236 258 216 239 l 216 239 q 186 211 186 174 l 186 174 q 186 138 212 118 q 238 97 282 97 q 326 97 354 117 q 381 136 381 174 l 381 174 q 381 216 342 242 l 342 242 q 313 260 270 268 z m 290 365 l 290 365 q 321 375 341 389 l 341 389 q 367 409 367 444 l 367 444 q 367 476 345 494 q 322 511 282 511 l 282 511 q 244 511 222 493 q 200 474 200 443 l 200 443 q 200 418 213 402 q 226 385 250 376 l 250 376 q 268 369 290 365 z"},"9":{"x_min":37,"x_max":517,"ha":557,"o":"m 72 67 l 72 67 q 72 86 81 104 q 90 121 102 130 l 102 130 q 127 118 157 111 q 187 103 216 103 l 216 103 q 262 103 296 120 q 330 137 350 171 q 369 205 368 253 l 368 253 q 356 243 337 234 q 318 224 295 218 q 272 212 243 212 l 243 212 q 184 212 138 234 q 91 256 64 300 q 37 344 37 410 l 37 410 q 37 470 64 518 q 91 565 143 594 q 195 622 268 622 l 268 622 q 345 622 401 588 q 456 553 487 486 q 517 418 517 320 l 517 320 q 517 206 482 132 q 446 58 383 22 q 320 -15 237 -15 l 237 -15 q 163 -15 118 6 q 72 27 72 67 z m 276 326 l 276 326 q 302 326 327 338 q 351 350 364 368 l 364 368 l 364 375 q 364 437 340 471 q 315 504 267 504 l 267 504 q 229 504 207 480 q 184 455 184 414 l 184 414 q 184 371 211 349 q 237 326 276 326 z"}," ":{"x_min":0,"x_max":0,"ha":200,"o":""},"!":{"x_min":56,"x_max":229,"ha":286,"o":"m 219 564 l 219 564 q 219 539 218 498 q 217 456 215 406 q 212 356 208 308 q 204 259 198 220 l 198 220 q 191 214 173 211 q 155 207 142 207 l 142 207 q 118 207 101 216 q 83 224 79 246 l 79 246 q 75 271 72 316 q 68 360 66 414 q 63 468 62 520 q 61 572 61 611 l 61 611 q 98 633 145 633 l 145 633 q 180 633 200 616 q 219 599 219 564 z m 56 69 l 56 69 q 56 105 80 129 q 103 153 143 153 l 143 153 q 182 153 206 129 q 229 105 229 69 l 229 69 q 229 32 206 8 q 182 -16 143 -16 l 143 -16 q 103 -16 80 8 q 56 32 56 69 z"},"\"":{"x_min":26,"x_max":348,"ha":376,"o":"m 144 388 l 144 388 q 134 382 122 381 q 109 379 93 379 l 93 379 q 70 379 55 388 q 40 396 38 419 l 38 419 l 26 612 q 54 633 97 633 l 97 633 q 130 633 147 620 q 163 607 163 578 l 163 578 q 163 560 160 525 q 157 489 153 452 q 149 414 144 388 z m 329 388 l 329 388 q 319 382 307 381 q 294 379 277 379 l 277 379 q 254 379 239 388 q 224 396 222 419 l 222 419 l 211 612 q 224 622 242 628 q 259 633 281 633 l 281 633 q 314 633 331 620 q 348 607 348 577 l 348 577 q 348 560 345 525 q 342 489 338 452 q 334 414 329 388 z"},"#":{"x_min":33,"x_max":671,"ha":703,"o":"m 592 137 l 592 137 l 496 137 l 466 -1 q 455 -3 445 -3 q 434 -4 424 -4 l 424 -4 q 392 -4 373 9 q 353 22 353 56 l 353 56 q 353 77 359 103 l 359 103 q 364 122 367 137 l 367 137 l 262 137 l 232 -1 q 221 -3 211 -3 q 200 -4 190 -4 l 190 -4 q 158 -4 139 9 q 119 22 119 56 l 119 56 q 119 77 125 103 l 125 103 q 129 122 132 137 l 132 137 l 48 137 q 42 146 38 161 q 33 175 33 191 l 33 191 q 33 222 48 235 q 62 248 84 248 l 84 248 l 156 248 l 182 366 l 76 366 q 70 375 66 390 q 61 404 61 420 l 61 420 q 61 451 75 465 q 89 478 112 478 l 112 478 l 206 478 l 235 614 q 247 616 259 616 l 259 616 l 279 616 q 311 616 331 604 q 350 592 350 557 l 350 557 q 350 536 345 512 l 345 512 q 340 494 337 478 l 337 478 l 440 478 l 470 614 q 482 616 493 616 l 493 616 l 513 616 q 545 616 565 604 q 584 592 584 557 l 584 557 q 584 536 579 512 l 579 512 q 574 494 571 478 l 571 478 l 656 478 q 661 469 666 455 q 671 440 671 423 l 671 423 q 671 394 657 380 q 643 366 620 366 l 620 366 l 547 366 l 521 248 l 628 248 q 633 239 638 225 q 643 211 643 194 l 643 194 q 643 164 630 151 q 616 137 592 137 z m 416 366 l 312 366 l 286 248 l 390 248 l 416 366 z"},"$":{"x_min":46,"x_max":513,"ha":555,"o":"m 255 107 l 255 107 q 309 107 333 127 q 356 146 356 173 l 356 173 q 356 198 338 214 q 319 229 283 240 l 283 240 l 230 257 q 176 275 135 297 q 94 319 71 354 q 48 389 48 443 l 48 443 q 48 526 111 575 l 111 575 q 151 606 210 617 l 210 617 l 210 695 q 218 698 234 701 q 250 703 268 703 l 268 703 q 307 703 324 690 q 341 676 341 641 l 341 641 l 341 621 q 366 618 388 613 l 388 613 q 432 602 458 581 q 483 559 483 528 l 483 528 q 483 505 473 489 q 462 472 446 460 l 446 460 q 423 476 385 488 q 347 499 301 499 l 301 499 q 253 499 229 484 q 205 468 205 443 l 205 443 q 205 423 221 411 q 237 398 269 388 l 269 388 l 324 371 q 415 343 464 297 q 513 250 513 172 l 513 172 q 513 88 448 36 l 448 36 q 406 2 341 -10 l 341 -10 l 341 -87 q 333 -89 317 -91 q 301 -94 283 -94 l 283 -94 q 245 -94 228 -80 q 210 -67 210 -32 l 210 -32 l 210 -15 q 178 -11 151 -4 l 151 -4 q 103 9 75 34 q 46 59 46 92 l 46 92 q 46 118 62 137 q 77 155 96 164 l 96 164 q 123 142 164 125 q 204 107 255 107 z"},"%":{"x_min":35,"x_max":758,"ha":793,"o":"m 347 462 l 347 462 q 347 390 303 349 q 259 307 191 307 l 191 307 q 123 307 79 349 q 35 390 35 462 l 35 462 q 35 534 79 575 q 123 616 191 616 l 191 616 q 259 616 303 575 q 347 534 347 462 z m 144 462 l 144 462 q 144 430 158 414 q 171 397 191 397 l 191 397 q 211 397 225 414 q 238 430 238 462 l 238 462 q 238 493 225 509 q 211 525 191 525 l 191 525 q 171 525 158 509 q 144 493 144 462 z m 194 103 l 194 103 l 545 617 q 576 612 601 600 q 625 588 625 567 l 625 567 q 625 552 618 537 q 610 522 599 506 l 599 506 l 248 -7 q 213 -4 191 10 q 168 23 168 43 l 168 43 q 168 57 175 72 q 182 87 194 103 z m 758 147 l 758 147 q 758 75 714 34 q 670 -8 602 -8 l 602 -8 q 534 -8 490 34 q 445 75 445 147 l 445 147 q 445 219 490 260 q 534 301 602 301 l 602 301 q 670 301 714 260 q 758 219 758 147 z m 554 147 l 554 147 q 554 115 568 99 q 581 82 602 82 l 602 82 q 622 82 636 99 q 649 115 649 147 l 649 147 q 649 178 636 194 q 622 210 602 210 l 602 210 q 581 210 568 194 q 554 178 554 147 z"},"&":{"x_min":39,"x_max":639,"ha":664,"o":"m 566 -14 l 566 -14 q 531 -14 497 20 l 497 20 l 471 47 q 436 17 391 3 l 391 3 q 335 -16 279 -16 l 279 -16 q 203 -16 150 11 q 96 37 68 83 q 39 128 39 185 l 39 185 q 39 236 60 273 q 80 310 113 335 l 113 335 q 139 355 168 367 l 168 367 q 145 396 137 419 l 137 419 q 126 448 126 474 l 126 474 q 126 515 147 549 q 168 583 209 603 q 249 623 306 623 l 306 623 q 367 623 394 602 q 420 581 420 549 l 420 549 q 420 534 414 519 q 407 504 395 493 l 395 493 q 383 499 367 503 q 350 507 333 507 l 333 507 q 304 507 286 494 q 267 480 267 455 l 267 455 q 267 436 280 420 q 292 403 317 379 l 317 379 l 459 239 q 466 264 469 293 l 469 293 q 473 335 473 372 l 473 372 q 490 379 505 383 q 520 386 535 386 l 535 386 q 575 386 589 364 q 603 341 603 304 l 603 304 q 603 259 589 209 l 589 209 q 578 173 560 140 l 560 140 l 639 62 q 637 29 616 8 q 595 -14 566 -14 z m 387 132 l 387 132 l 241 279 q 228 274 216 265 l 216 265 q 199 252 190 235 q 180 217 180 194 l 180 194 q 180 153 208 126 q 235 99 287 99 l 287 99 q 308 99 342 109 l 342 109 q 365 115 387 132 z"},"'":{"x_min":26,"x_max":171,"ha":200,"o":"m 152 391 l 152 391 q 143 386 129 383 q 114 379 97 379 l 97 379 q 72 379 56 390 q 40 400 38 422 l 38 422 l 26 609 q 39 618 58 626 q 77 633 101 633 l 101 633 q 134 633 153 619 q 171 605 171 574 l 171 574 q 171 557 169 523 q 166 489 162 453 q 157 417 152 391 z"},"(":{"x_min":45,"x_max":289,"ha":293,"o":"m 218 -131 l 218 -131 q 184 -131 160 -109 q 135 -88 118 -56 l 118 -56 q 86 -1 66 81 q 45 162 45 268 l 45 268 q 45 374 66 456 q 87 537 118 591 l 118 591 q 135 622 160 644 q 184 665 218 665 l 218 665 q 242 665 261 652 q 279 639 289 623 l 289 623 q 239 551 213 467 q 186 382 186 268 l 186 268 q 186 154 212 71 q 238 -13 289 -89 l 289 -89 q 279 -104 261 -117 q 242 -131 218 -131 z"},")":{"x_min":5,"x_max":248,"ha":293,"o":"m 75 -131 l 75 -131 q 51 -131 33 -117 q 14 -104 5 -89 l 5 -89 q 56 -13 82 71 q 107 154 107 268 l 107 268 q 107 382 81 467 q 54 551 5 623 l 5 623 q 14 639 33 652 q 51 665 75 665 l 75 665 q 110 665 134 644 q 158 622 176 591 l 176 591 q 207 537 228 456 q 248 374 248 268 l 248 268 q 248 162 229 81 q 209 -1 176 -56 l 176 -56 q 158 -88 134 -109 q 110 -131 75 -131 z"},"*":{"x_min":20,"x_max":315,"ha":339,"o":"m 69 444 l 91 472 l 25 491 q 20 507 20 524 l 20 524 q 20 547 33 560 q 46 572 69 572 l 69 572 q 76 572 84 570 q 91 568 99 565 l 99 565 l 123 556 l 123 632 q 130 637 143 643 q 155 649 171 649 l 171 649 q 192 649 205 639 q 217 628 217 606 l 217 606 q 217 601 216 583 l 216 583 q 215 569 215 554 l 215 554 l 278 583 q 293 576 304 562 q 315 548 315 529 l 315 529 q 315 508 304 500 q 292 492 273 484 l 273 484 l 245 472 l 295 403 q 289 383 275 370 q 260 357 240 357 l 240 357 q 219 357 208 370 q 196 382 186 399 l 186 399 l 172 421 l 130 360 q 125 359 120 358 q 114 357 110 357 l 110 357 q 80 357 65 370 q 50 382 50 402 l 50 402 q 50 413 56 423 q 61 433 69 444 l 69 444 z"},"+":{"x_min":35,"x_max":511,"ha":546,"o":"m 456 233 l 456 233 l 342 233 l 342 55 q 332 53 315 50 q 297 47 280 47 l 280 47 q 244 47 226 60 q 207 72 207 111 l 207 111 l 207 233 l 50 233 q 44 243 40 257 q 35 271 35 289 l 35 289 q 35 321 50 336 q 65 350 90 350 l 90 350 l 207 350 l 207 524 l 235 530 q 252 533 269 533 l 269 533 q 304 533 323 520 q 342 507 342 468 l 342 468 l 342 350 l 496 350 q 501 341 506 325 q 511 309 511 292 l 511 292 q 511 260 496 247 q 481 233 456 233 z"},",":{"x_min":-9,"x_max":197,"ha":219,"o":"m 130 -78 l 130 -78 q 101 -116 56 -116 l 56 -116 q 18 -116 -9 -93 l -9 -93 q 4 -56 16 -14 q 27 27 37 68 q 46 108 52 141 l 52 141 q 66 149 87 155 q 107 160 128 160 l 128 160 q 156 160 177 148 q 197 135 197 102 l 197 102 q 197 77 187 42 q 176 7 161 -25 q 145 -58 130 -78 z"},"-":{"x_min":36,"x_max":327,"ha":362,"o":"m 272 196 l 272 196 l 52 196 q 46 206 41 222 q 36 237 36 255 l 36 255 q 36 287 51 302 q 66 316 91 316 l 91 316 l 311 316 q 316 307 322 291 q 327 275 327 258 l 327 258 q 327 226 312 211 q 296 196 272 196 z"},".":{"x_min":21,"x_max":194,"ha":215,"o":"m 21 72 l 21 72 q 21 109 45 135 q 68 160 107 160 l 107 160 q 147 160 171 135 q 194 109 194 72 l 194 72 q 194 35 171 10 q 147 -16 107 -16 l 107 -16 q 68 -16 45 10 q 21 35 21 72 z"},"/":{"x_min":8,"x_max":326,"ha":334,"o":"m 307 551 l 307 551 l 129 -106 q 116 -108 105 -108 q 94 -109 84 -109 l 84 -109 q 48 -109 28 -93 q 8 -77 8 -42 l 8 -42 q 8 -19 15 6 q 22 30 27 48 l 27 48 l 205 705 q 218 707 230 708 q 242 708 251 708 l 251 708 q 285 708 306 693 q 326 678 326 644 l 326 644 q 326 620 320 597 q 313 574 307 551 z"},":":{"x_min":34,"x_max":212,"ha":241,"o":"m 38 394 l 38 394 q 38 431 62 457 q 86 482 125 482 l 125 482 q 165 482 189 457 q 212 431 212 394 l 212 394 q 212 357 189 332 q 165 307 125 307 l 125 307 q 86 307 62 332 q 38 357 38 394 z m 34 72 l 34 72 q 34 109 58 135 q 81 160 121 160 l 121 160 q 160 160 184 135 q 208 109 208 72 l 208 72 q 208 35 184 10 q 160 -16 121 -16 l 121 -16 q 81 -16 58 10 q 34 35 34 72 z"},";":{"x_min":6,"x_max":214,"ha":251,"o":"m 40 394 l 40 394 q 40 431 64 457 q 87 482 127 482 l 127 482 q 166 482 190 457 q 214 431 214 394 l 214 394 q 214 357 190 332 q 166 307 127 307 l 127 307 q 87 307 64 332 q 40 357 40 394 z m 144 -78 l 144 -78 q 116 -116 71 -116 l 71 -116 q 33 -116 6 -93 l 6 -93 q 19 -56 31 -14 q 42 27 52 68 q 61 108 66 141 l 66 141 q 81 149 102 155 q 122 160 143 160 l 143 160 q 171 160 192 148 q 212 135 212 102 l 212 102 q 212 77 202 42 q 191 7 176 -25 q 160 -58 144 -78 z"},"<":{"x_min":36,"x_max":455,"ha":486,"o":"m 394 371 l 177 281 l 453 151 q 455 145 455 138 l 455 138 l 455 125 q 455 94 441 71 q 426 48 388 48 l 388 48 q 370 48 353 56 q 336 63 310 77 l 310 77 l 58 207 q 36 236 36 283 l 36 283 q 36 319 47 339 q 57 358 76 369 l 76 369 l 383 524 q 424 513 440 494 q 455 474 455 451 l 455 451 q 455 421 439 404 q 423 386 394 371 l 394 371 z"},"=":{"x_min":37,"x_max":474,"ha":511,"o":"m 420 340 l 420 340 l 51 340 q 45 350 41 365 q 37 379 37 396 l 37 396 q 37 428 52 443 q 67 458 91 458 l 91 458 l 460 458 q 465 449 470 433 q 474 417 474 399 l 474 399 q 474 367 459 354 q 444 340 420 340 z m 420 133 l 420 133 l 51 133 q 45 143 41 157 q 37 171 37 189 l 37 189 q 37 221 52 236 q 67 250 91 250 l 91 250 l 460 250 q 465 241 470 225 q 474 209 474 192 l 474 192 q 474 160 459 147 q 444 133 420 133 z"},">":{"x_min":30,"x_max":448,"ha":484,"o":"m 95 201 l 307 291 l 33 419 q 32 424 31 432 q 30 439 30 445 l 30 445 q 30 475 46 498 q 61 521 98 521 l 98 521 q 116 521 136 513 q 155 505 176 494 l 176 494 l 426 365 q 448 336 448 289 l 448 289 q 448 253 438 234 q 427 214 408 203 l 408 203 l 106 48 q 65 59 50 79 q 34 98 34 121 l 34 121 q 34 151 50 169 q 66 187 95 201 l 95 201 z"},"?":{"x_min":25,"x_max":453,"ha":489,"o":"m 231 229 l 231 229 l 131 208 q 116 218 103 238 q 90 258 90 285 l 90 285 q 90 312 105 326 q 119 340 148 347 l 148 347 l 224 366 q 260 376 278 393 q 295 410 295 440 l 295 440 q 295 466 273 487 q 251 508 199 508 l 199 508 q 159 508 122 497 q 84 486 61 470 l 61 470 q 47 482 36 499 q 25 516 25 538 l 25 538 q 25 586 80 610 q 134 633 218 633 l 218 633 q 294 633 346 609 q 398 584 426 541 q 453 497 453 440 l 453 440 q 453 354 398 303 q 342 252 231 229 z m 103 69 l 103 69 q 103 106 127 130 q 150 154 190 154 l 190 154 q 229 154 253 130 q 276 106 276 69 l 276 69 q 276 32 253 8 q 229 -16 190 -16 l 190 -16 q 150 -16 127 8 q 103 32 103 69 z"},"@":{"x_min":50,"x_max":1007,"ha":1052,"o":"m 633 31 l 633 31 q 619 23 602 16 l 602 16 q 562 0 509 0 l 509 0 q 420 0 364 52 q 308 104 308 198 l 308 198 q 308 270 339 325 q 370 379 426 409 q 481 439 555 439 l 555 439 q 608 439 646 427 q 684 414 711 396 l 711 396 q 751 371 751 334 l 751 334 l 751 323 q 751 317 750 311 l 750 311 l 727 117 q 733 115 741 113 l 741 113 q 751 109 761 109 l 761 109 q 811 109 839 156 q 866 202 866 275 l 866 275 q 866 356 826 418 q 786 479 715 513 q 644 547 551 547 l 551 547 q 444 547 363 503 q 282 459 237 382 q 192 304 192 204 l 192 204 q 192 108 232 38 q 272 -33 343 -71 q 413 -109 503 -109 l 503 -109 q 546 -109 575 -105 q 604 -101 626 -97 l 626 -97 q 632 -107 637 -121 q 642 -135 642 -148 l 642 -148 q 642 -172 629 -189 q 616 -207 584 -216 q 552 -226 493 -226 l 493 -226 q 428 -226 364 -209 q 300 -193 244 -160 q 187 -127 144 -75 q 100 -24 75 46 q 50 115 50 204 l 50 204 q 50 310 88 394 q 125 478 193 538 q 261 597 352 629 q 443 660 550 660 l 550 660 q 652 660 736 633 q 820 606 881 555 q 941 504 974 433 q 1007 362 1007 274 l 1007 274 q 1007 142 943 69 q 879 -5 761 -5 l 761 -5 q 731 -5 696 4 l 696 4 q 661 13 633 31 z m 456 198 l 456 198 q 456 153 479 133 q 501 113 534 113 q 567 113 590 130 l 590 130 q 591 131 593 133 l 593 133 l 610 310 q 600 316 587 319 q 573 322 553 322 l 553 322 q 512 322 484 290 q 456 258 456 198 z"},"A":{"x_min":25,"x_max":599,"ha":619,"o":"m 409 135 l 208 135 q 204 124 202 113 l 202 113 q 196 92 190 72 q 184 52 179 34 q 174 16 169 0 l 169 0 q 158 -3 144 -6 q 130 -10 111 -10 l 111 -10 q 69 -10 47 5 q 25 20 25 49 l 25 49 q 25 61 29 74 q 32 87 37 104 l 37 104 q 46 137 63 187 q 79 237 99 296 q 118 354 139 411 q 159 468 177 516 q 194 564 205 591 l 205 591 q 219 600 250 608 q 280 615 310 615 l 310 615 q 353 615 387 603 q 421 590 430 563 l 430 563 q 449 510 472 441 q 494 371 517 295 q 540 219 562 148 q 583 76 599 19 l 599 19 q 588 7 567 -1 q 546 -10 517 -10 l 517 -10 q 476 -10 459 5 q 442 20 433 50 l 433 50 l 409 135 z m 315 480 l 315 480 l 309 480 q 299 448 286 409 q 272 370 258 328 l 258 328 q 246 290 234 253 l 234 253 l 382 253 q 371 295 359 334 l 359 334 q 346 376 335 414 q 324 451 315 480 z"},"B":{"x_min":71,"x_max":574,"ha":614,"o":"m 458 321 l 458 321 q 461 320 464 319 l 464 319 q 519 299 547 263 q 574 227 574 176 l 574 176 q 574 79 502 32 q 430 -15 297 -15 l 297 -15 q 273 -15 243 -13 q 212 -11 181 -6 q 149 -1 123 8 l 123 8 q 71 27 71 75 l 71 75 l 71 553 q 71 572 82 583 q 93 594 111 600 l 111 600 q 145 612 194 617 q 242 622 293 622 l 293 622 q 417 622 485 579 q 552 536 552 449 l 552 449 q 552 401 524 367 l 524 367 q 500 338 458 321 z m 314 256 l 314 256 l 219 256 l 219 111 q 236 107 261 105 q 285 103 307 103 l 307 103 q 357 103 388 123 q 418 142 418 182 l 418 182 q 418 220 392 238 q 366 256 314 256 z m 219 364 l 306 364 q 354 364 377 383 q 400 402 400 437 l 400 437 q 400 470 374 488 q 347 506 294 506 l 294 506 q 275 506 254 505 q 233 503 219 500 l 219 500 l 219 364 z"},"C":{"x_min":40,"x_max":542,"ha":575,"o":"m 539 524 l 539 524 q 539 501 527 484 q 515 467 500 457 l 500 457 q 475 474 444 487 q 412 500 369 500 l 369 500 q 316 500 277 477 q 238 454 218 410 q 197 366 197 303 l 197 303 q 197 207 245 157 q 293 107 377 107 l 377 107 q 420 107 451 119 q 482 131 508 146 l 508 146 q 523 135 533 118 q 542 100 542 77 l 542 77 q 542 57 532 40 q 521 23 496 11 l 496 11 q 477 1 442 -8 q 407 -17 357 -17 l 357 -17 q 269 -17 197 18 q 124 52 82 123 q 40 193 40 303 l 40 303 q 40 407 82 479 q 123 550 193 587 q 263 624 348 624 l 348 624 q 407 624 450 611 q 493 597 516 575 q 539 552 539 524 z"},"D":{"x_min":71,"x_max":623,"ha":663,"o":"m 466 303 l 466 303 q 466 207 419 158 q 371 109 292 109 l 292 109 q 275 109 256 111 q 237 112 222 115 l 222 115 l 222 494 q 239 496 256 498 q 272 499 290 499 l 290 499 q 342 499 382 478 q 421 456 444 413 q 466 370 466 303 z m 623 306 l 623 306 q 623 413 580 483 q 537 553 461 588 q 384 622 281 622 l 281 622 q 243 622 197 618 q 151 614 111 601 l 111 601 q 93 594 82 584 q 71 573 71 553 l 71 553 l 71 75 q 71 27 123 8 l 123 8 q 162 -6 210 -10 q 258 -15 291 -15 l 291 -15 q 391 -15 466 21 q 540 56 582 127 q 623 198 623 306 z"},"E":{"x_min":71,"x_max":503,"ha":544,"o":"m 450 -2 l 152 -2 q 115 -2 93 20 q 71 42 71 79 l 71 79 l 71 525 q 71 563 93 585 q 115 606 152 606 l 152 606 l 482 606 q 489 597 494 582 q 498 567 498 549 l 498 549 q 498 517 484 502 q 470 486 445 486 l 445 486 l 219 486 l 219 369 l 454 369 q 460 359 465 344 q 470 329 470 311 l 470 311 q 470 279 456 264 q 441 249 417 249 l 417 249 l 219 249 l 219 119 l 487 119 q 493 110 498 94 q 503 78 503 60 l 503 60 q 503 28 489 13 q 474 -2 450 -2 l 450 -2 z"},"F":{"x_min":71,"x_max":501,"ha":528,"o":"m 71 64 l 71 308 l 71 525 q 71 563 93 585 q 115 606 152 606 l 152 606 l 485 606 q 491 597 496 581 q 501 565 501 547 l 501 547 q 501 515 487 500 q 472 484 447 484 l 447 484 l 222 484 l 222 348 l 451 348 q 457 338 462 323 q 467 307 467 289 l 467 289 q 467 257 453 242 q 438 226 413 226 l 413 226 l 223 226 l 223 1 q 214 -2 194 -4 q 174 -7 153 -7 l 153 -7 q 108 -7 90 9 q 71 25 71 64 l 71 64 z"},"G":{"x_min":40,"x_max":603,"ha":658,"o":"m 603 299 l 603 299 l 603 91 q 603 63 593 49 q 582 34 558 21 l 558 21 q 531 6 480 -5 q 429 -17 378 -17 l 378 -17 q 282 -17 206 17 q 129 50 85 121 q 40 191 40 302 l 40 302 q 40 408 85 480 q 130 551 207 588 q 283 624 376 624 l 376 624 q 438 624 484 611 q 529 598 554 575 q 578 552 578 522 l 578 522 q 578 500 567 483 q 555 465 539 456 l 539 456 q 514 472 476 486 q 438 500 387 500 l 387 500 q 332 500 289 477 q 245 453 221 409 q 197 364 197 303 l 197 303 q 197 237 221 193 q 244 149 286 128 q 327 106 380 106 l 380 106 q 405 106 426 111 q 446 116 457 121 l 457 121 l 457 238 l 340 238 q 334 248 329 264 q 324 279 324 297 l 324 297 q 324 328 339 343 q 353 357 377 357 l 377 357 l 545 357 q 572 357 588 342 q 603 327 603 299 z"},"H":{"x_min":71,"x_max":597,"ha":668,"o":"m 71 65 l 71 423 l 71 608 q 81 610 102 613 q 122 616 141 616 l 141 616 q 185 616 204 601 q 223 586 223 544 l 223 544 l 223 365 l 444 365 l 444 608 q 455 610 475 613 q 495 616 515 616 l 515 616 q 558 616 578 601 q 597 585 597 543 l 597 543 l 597 1 q 587 -2 567 -4 q 547 -7 526 -7 l 526 -7 q 481 -7 463 9 q 444 25 444 65 l 444 65 l 444 244 l 223 244 l 223 1 q 214 -2 194 -4 q 174 -7 153 -7 l 153 -7 q 108 -7 90 9 q 71 25 71 65 l 71 65 z"},"I":{"x_min":71,"x_max":223,"ha":295,"o":"m 71 65 l 71 423 l 71 608 q 81 610 102 613 q 122 616 142 616 l 142 616 q 185 616 204 601 q 223 586 223 544 l 223 544 l 223 1 q 214 -2 194 -4 q 174 -7 153 -7 l 153 -7 q 108 -7 90 9 q 71 25 71 65 l 71 65 z"},"J":{"x_min":22,"x_max":337,"ha":406,"o":"m 185 191 l 185 290 l 185 608 q 195 610 216 613 q 236 616 255 616 l 255 616 q 298 616 318 601 q 337 586 337 544 l 337 544 l 337 172 q 337 113 314 71 q 291 29 249 8 q 206 -14 145 -14 l 145 -14 q 92 -14 57 4 q 22 22 22 65 l 22 65 q 22 84 28 98 q 34 112 40 120 l 40 120 q 59 115 74 113 q 89 110 107 110 l 107 110 q 147 110 166 130 q 185 150 185 191 l 185 191 z"},"K":{"x_min":71,"x_max":581,"ha":603,"o":"m 223 544 l 223 360 l 448 612 q 505 612 531 590 q 557 567 557 537 l 557 537 q 557 514 546 494 q 534 473 508 449 l 508 449 l 361 302 q 423 237 474 183 l 474 183 q 540 113 581 71 l 581 71 q 581 33 556 12 q 531 -10 498 -10 l 498 -10 q 462 -10 439 8 q 416 26 395 50 l 395 50 l 223 244 l 223 1 q 214 -2 194 -5 q 174 -8 153 -8 l 153 -8 q 108 -8 90 9 q 71 25 71 64 l 71 64 l 71 608 q 81 610 102 613 q 122 616 141 616 l 141 616 q 185 616 204 601 q 223 586 223 544 l 223 544 z"},"L":{"x_min":71,"x_max":483,"ha":510,"o":"m 430 -2 l 152 -2 q 115 -2 93 20 q 71 42 71 79 l 71 79 l 71 608 q 81 610 102 613 q 122 616 141 616 l 141 616 q 185 616 204 601 q 223 586 223 544 l 223 544 l 223 122 l 466 122 q 473 112 478 97 q 483 81 483 62 l 483 62 q 483 30 469 14 q 455 -2 430 -2 l 430 -2 z"},"M":{"x_min":58,"x_max":740,"ha":793,"o":"m 472 151 l 472 151 q 461 142 443 136 q 424 130 400 130 l 400 130 q 369 130 348 138 q 327 146 321 165 l 321 165 q 287 260 264 323 q 240 386 227 432 l 227 432 l 222 432 q 219 369 217 317 q 215 265 214 216 q 213 166 211 115 q 209 64 205 3 l 205 3 q 194 0 176 -4 q 157 -8 139 -8 l 139 -8 q 101 -8 80 5 q 58 18 58 50 l 58 50 q 58 72 61 116 q 63 159 67 216 q 70 272 74 335 q 77 398 82 460 q 86 521 90 573 l 90 573 q 98 585 122 598 q 146 610 188 610 l 188 610 q 233 610 261 596 q 288 581 300 548 l 300 548 q 315 512 332 465 q 349 417 366 369 q 382 320 396 281 l 396 281 l 401 281 q 429 369 459 453 q 488 537 509 593 l 509 593 q 523 601 545 606 q 566 610 590 610 l 590 610 q 633 610 660 598 q 686 585 691 560 l 691 560 q 695 541 700 500 q 704 459 709 406 q 714 352 719 294 q 724 235 729 180 q 733 124 736 80 q 739 36 740 10 l 740 10 q 725 1 709 -3 q 692 -8 667 -8 l 667 -8 q 635 -8 613 4 q 590 16 588 50 l 588 50 q 583 128 580 199 q 577 269 576 328 q 574 386 572 428 l 572 428 l 567 428 q 554 385 531 320 q 507 254 472 151 z"},"N":{"x_min":71,"x_max":604,"ha":674,"o":"m 604 547 l 604 176 l 604 19 q 591 7 568 0 q 544 -8 512 -8 l 512 -8 q 478 -8 449 3 q 419 14 400 52 l 400 52 l 279 282 q 268 304 258 326 q 247 348 237 371 q 227 393 217 416 l 217 416 l 211 415 q 213 382 215 350 l 215 350 q 217 308 218 269 q 218 230 218 193 l 218 193 l 218 0 q 209 -2 190 -4 q 170 -7 150 -7 l 150 -7 q 106 -7 89 8 q 71 23 71 62 l 71 62 l 71 580 q 83 597 109 606 q 134 615 164 615 l 164 615 q 197 615 227 604 q 256 593 275 556 l 275 556 l 397 325 q 408 304 419 282 q 430 259 440 237 q 450 215 459 192 l 459 192 l 463 193 q 458 256 457 314 l 457 314 q 456 380 456 440 l 456 440 l 456 608 q 466 610 485 613 q 504 616 525 616 l 525 616 q 568 616 586 601 q 604 585 604 547 l 604 547 z"},"O":{"x_min":40,"x_max":660,"ha":700,"o":"m 660 304 l 660 304 q 660 200 620 129 q 579 57 509 20 q 438 -17 349 -17 l 349 -17 q 260 -17 190 20 q 120 57 80 129 q 40 200 40 304 l 40 304 q 40 408 81 480 q 122 551 192 588 q 262 624 349 624 l 349 624 q 437 624 508 588 q 578 551 619 480 q 660 408 660 304 z m 503 304 l 503 304 q 503 400 462 450 q 420 500 349 500 l 349 500 q 281 500 239 451 q 197 401 197 304 l 197 304 q 197 206 239 157 q 280 107 350 107 l 350 107 q 420 107 462 157 q 503 206 503 304 z"},"P":{"x_min":71,"x_max":547,"ha":578,"o":"m 292 195 l 292 195 l 223 195 l 223 1 q 214 -2 194 -4 q 174 -7 153 -7 l 153 -7 q 108 -7 90 9 q 71 25 71 65 l 71 65 l 71 553 q 71 572 82 583 q 93 594 111 600 l 111 600 q 144 612 190 617 q 236 622 273 622 l 273 622 q 408 622 478 565 q 547 507 547 408 l 547 408 q 547 344 517 296 q 486 248 429 222 q 372 195 292 195 z m 222 495 l 222 315 l 282 315 q 333 315 363 339 q 392 363 392 408 q 392 453 364 476 q 336 499 283 499 l 283 499 q 265 499 251 498 q 236 497 222 495 l 222 495 z"},"Q":{"x_min":40,"x_max":694,"ha":701,"o":"m 660 305 l 660 305 q 660 201 620 129 l 620 129 q 580 59 513 23 l 513 23 q 538 11 562 1 l 562 1 q 597 -14 630 -25 l 630 -25 l 693 -46 q 694 -52 694 -56 l 694 -56 l 694 -65 q 694 -113 669 -135 q 644 -158 602 -158 q 560 -158 510 -132 q 460 -106 406 -59 l 406 -59 l 356 -15 q 352 -15 349 -15 l 349 -15 q 260 -15 190 22 q 120 58 80 130 q 40 201 40 305 q 40 409 81 480 q 122 551 192 588 q 262 624 349 624 l 349 624 q 437 624 508 588 q 578 551 619 480 q 660 409 660 305 z m 503 305 l 503 305 q 503 401 462 451 q 420 500 349 500 l 349 500 q 281 500 239 451 q 197 402 197 305 l 197 305 q 197 207 239 158 q 280 108 350 108 q 420 108 462 158 q 503 207 503 305 z"},"R":{"x_min":71,"x_max":573,"ha":604,"o":"m 437 234 l 437 234 q 447 221 457 209 l 457 209 q 481 178 504 149 q 526 120 544 96 q 562 71 573 54 l 573 54 q 564 24 541 8 q 518 -9 489 -9 l 489 -9 q 452 -9 433 8 q 413 24 396 51 l 396 51 l 296 204 l 223 204 l 223 1 q 214 -2 194 -4 q 174 -7 153 -7 l 153 -7 q 108 -7 90 9 q 71 25 71 65 l 71 65 l 71 553 q 71 572 82 583 q 93 594 111 600 l 111 600 q 144 612 189 617 q 233 622 281 622 l 281 622 q 416 622 484 566 q 552 509 552 412 l 552 412 q 552 352 520 305 l 520 305 q 489 260 437 234 z m 222 494 l 222 322 l 287 322 q 337 322 368 345 q 398 367 398 411 l 398 411 q 398 454 369 477 q 340 499 280 499 l 280 499 q 263 499 249 498 q 235 497 222 494 l 222 494 z"},"S":{"x_min":43,"x_max":510,"ha":544,"o":"m 252 107 l 252 107 q 306 107 330 127 q 353 146 353 173 l 353 173 q 353 198 335 214 q 316 229 280 240 l 280 240 l 227 257 q 173 275 132 297 q 90 319 68 354 q 45 389 45 443 l 45 443 q 45 526 108 575 q 171 624 283 624 l 283 624 q 340 624 385 613 q 429 602 455 581 q 480 559 480 528 l 480 528 q 480 505 470 489 q 459 472 443 460 l 443 460 q 420 476 382 488 q 344 499 298 499 l 298 499 q 250 499 226 484 q 202 468 202 443 l 202 443 q 202 423 218 411 q 234 398 266 388 l 266 388 l 321 371 q 412 343 461 297 q 510 250 510 172 l 510 172 q 510 88 445 36 q 380 -17 257 -17 l 257 -17 q 196 -17 148 -4 q 100 9 72 34 q 43 59 43 92 l 43 92 q 43 118 59 137 q 74 155 93 164 l 93 164 q 120 142 161 125 q 201 107 252 107 z"},"T":{"x_min":20,"x_max":527,"ha":548,"o":"m 73 606 l 202 606 l 511 606 q 517 597 522 581 q 527 565 527 547 l 527 547 q 527 515 513 500 q 498 484 473 484 l 473 484 l 348 484 l 348 1 q 338 -2 318 -4 q 298 -7 277 -7 l 277 -7 q 232 -7 214 9 q 195 25 195 65 l 195 65 l 195 484 l 36 484 q 29 493 25 509 q 20 525 20 543 l 20 543 q 20 576 35 591 q 49 606 73 606 l 73 606 z"},"U":{"x_min":68,"x_max":592,"ha":660,"o":"m 330 -17 l 330 -17 q 248 -17 190 13 q 131 42 100 95 q 68 148 68 219 l 68 219 l 68 608 q 79 610 99 613 q 119 616 139 616 l 139 616 q 182 616 202 601 q 221 586 221 544 l 221 544 l 221 223 q 221 168 252 138 q 282 107 330 107 q 378 107 409 138 q 439 168 439 223 l 439 223 l 439 608 q 450 610 471 613 q 491 616 510 616 l 510 616 q 553 616 573 601 q 592 586 592 544 l 592 544 l 592 219 q 592 148 561 95 q 530 42 471 13 q 412 -17 330 -17 z"},"V":{"x_min":20,"x_max":596,"ha":622,"o":"m 409 17 l 409 17 q 397 7 371 -1 q 345 -9 314 -9 l 314 -9 q 279 -9 252 2 q 225 13 216 32 l 216 32 q 201 61 182 109 q 162 156 140 216 q 117 275 95 339 q 72 402 53 464 q 34 526 20 577 l 20 577 q 32 589 55 600 q 78 610 105 610 l 105 610 q 138 610 158 596 q 178 582 187 546 l 187 546 q 218 440 249 343 q 280 245 315 142 l 315 142 l 320 142 q 341 207 363 282 q 384 357 406 437 q 427 516 446 593 l 446 593 q 461 600 479 605 q 497 610 518 610 l 518 610 q 551 610 574 596 q 596 581 596 548 l 596 548 q 596 528 586 487 q 575 445 558 391 q 540 336 520 279 q 499 221 478 168 q 457 115 439 75 q 420 35 409 17 z"},"W":{"x_min":28,"x_max":814,"ha":849,"o":"m 348 458 l 348 458 q 359 463 380 469 q 400 474 421 474 l 421 474 q 458 474 483 463 q 507 452 513 430 l 513 430 q 530 371 544 322 q 558 273 572 228 q 585 182 598 132 l 598 132 l 602 132 q 616 215 627 291 q 638 367 648 441 q 658 515 667 593 l 667 593 q 700 611 735 611 l 735 611 q 768 611 791 597 q 814 583 814 550 l 814 550 q 814 528 810 489 q 805 449 797 398 q 789 347 779 292 q 768 237 756 185 q 744 132 732 90 q 720 47 709 21 l 709 21 q 696 10 667 2 q 638 -7 606 -7 l 606 -7 q 566 -7 537 5 q 508 16 502 36 l 502 36 q 492 65 480 104 q 467 143 454 190 q 441 236 428 285 l 428 285 q 417 237 404 188 q 391 138 379 95 q 367 52 357 21 l 357 21 q 344 10 318 2 q 291 -7 259 -7 l 259 -7 q 221 -7 189 5 q 157 17 148 36 l 148 36 q 138 59 125 106 q 111 152 97 213 q 82 273 69 339 q 56 405 45 468 q 34 530 28 580 l 28 580 q 41 591 63 601 q 84 611 110 611 l 110 611 q 143 611 164 597 q 185 582 191 547 l 191 547 q 207 455 218 389 q 228 323 236 276 q 243 229 249 195 q 255 160 261 132 l 261 132 l 266 132 q 276 173 285 209 q 294 244 304 281 q 314 317 325 360 q 336 402 348 458 z"},"X":{"x_min":29,"x_max":571,"ha":599,"o":"m 397 49 l 295 202 l 155 -6 q 148 -7 141 -7 q 134 -8 128 -8 l 128 -8 q 80 -8 57 12 q 33 32 33 62 l 33 62 q 33 87 45 106 q 56 125 75 150 l 75 150 l 197 307 l 29 542 q 38 567 62 590 q 85 612 123 612 l 123 612 q 149 612 169 599 q 188 586 208 555 l 208 555 l 303 412 l 433 604 q 441 607 453 609 q 464 611 477 611 l 477 611 q 516 611 538 592 q 560 572 560 545 l 560 545 q 560 521 548 502 q 535 482 514 456 l 514 456 q 478 409 442 363 l 442 363 q 420 335 397 308 l 397 308 l 571 62 q 565 30 542 11 q 518 -8 480 -8 l 480 -8 q 455 -8 437 5 q 418 18 397 49 l 397 49 z"},"Y":{"x_min":9,"x_max":553,"ha":568,"o":"m 368 205 l 368 205 l 368 1 q 358 -2 339 -4 q 319 -7 299 -7 l 299 -7 q 254 -7 236 9 q 218 24 218 63 l 218 63 l 218 207 q 195 240 169 281 l 169 281 q 138 329 108 381 q 78 432 52 480 q 25 528 9 566 l 9 566 q 20 582 40 596 q 59 610 89 610 l 89 610 q 123 610 144 596 q 165 581 184 543 l 184 543 q 197 519 211 494 q 224 468 238 442 q 251 415 265 390 q 278 364 290 341 l 290 341 l 295 341 q 318 387 336 426 q 354 465 372 506 q 389 546 410 594 l 410 594 q 425 602 444 606 q 463 610 480 610 l 480 610 q 511 610 532 594 q 553 578 553 546 l 553 546 q 553 534 544 511 q 535 488 513 448 q 491 407 455 346 l 455 346 q 420 287 368 205 z"},"Z":{"x_min":38,"x_max":525,"ha":559,"o":"m 76 167 l 76 167 l 333 484 l 63 484 q 57 494 52 510 q 46 525 46 544 l 46 544 q 46 577 61 593 q 76 609 102 609 l 102 609 l 480 609 q 518 578 518 527 l 518 527 q 518 504 508 483 q 498 462 482 442 l 482 442 l 227 125 l 508 125 q 514 115 520 99 q 525 83 525 64 l 525 64 q 525 31 511 16 q 496 0 470 0 l 470 0 l 72 0 q 57 12 48 33 q 38 54 38 80 l 38 80 q 38 102 49 125 q 60 147 76 167 z"},"[":{"x_min":52,"x_max":288,"ha":295,"o":"m 119 656 l 119 656 l 274 656 q 280 647 284 633 q 288 619 288 603 l 288 603 q 288 573 275 559 q 261 545 238 545 l 238 545 l 189 545 l 189 -15 l 274 -15 q 280 -24 284 -38 q 288 -53 288 -69 l 288 -69 q 288 -98 275 -112 q 261 -126 238 -126 l 238 -126 l 119 -126 q 84 -126 68 -106 q 52 -86 52 -58 l 52 -58 l 52 589 q 52 616 68 636 q 84 656 119 656 z"},"\\":{"x_min":16,"x_max":335,"ha":355,"o":"m 157 622 l 157 622 l 335 -26 q 323 -39 301 -49 q 279 -59 259 -59 l 259 -59 q 235 -59 218 -48 q 200 -38 193 -11 l 193 -11 l 16 636 q 28 650 50 660 q 72 669 92 669 l 92 669 q 115 669 133 659 q 150 648 157 622 z"},"]":{"x_min":6,"x_max":243,"ha":305,"o":"m 175 -126 l 175 -126 l 21 -126 q 15 -117 11 -102 q 6 -88 6 -72 l 6 -72 q 6 -42 20 -28 q 34 -15 57 -15 l 57 -15 l 105 -15 l 105 545 l 21 545 q 15 554 11 569 q 6 583 6 599 l 6 599 q 6 630 20 643 q 34 656 57 656 l 57 656 l 175 656 q 211 656 227 636 q 243 616 243 589 l 243 589 l 243 -58 q 243 -86 227 -106 q 211 -126 175 -126 z"},"^":{"x_min":40,"x_max":442,"ha":482,"o":"m 163 643 l 163 643 q 173 652 194 658 q 214 663 240 663 l 240 663 q 301 663 319 631 l 319 631 q 332 613 349 578 q 366 543 385 501 q 403 458 419 417 q 434 375 442 343 l 442 343 q 432 332 414 323 q 395 313 374 313 l 374 313 q 347 313 332 325 q 316 336 304 368 l 304 368 l 238 539 l 233 539 q 226 519 217 494 q 208 468 198 440 q 188 412 179 383 q 170 354 164 328 l 164 328 q 151 320 134 317 q 117 313 102 313 l 102 313 q 76 313 58 325 q 40 337 40 365 l 40 365 q 40 379 49 406 q 58 432 72 465 q 86 498 103 533 q 120 567 136 597 q 152 626 163 643 z"},"_":{"x_min":0,"x_max":498,"ha":498,"o":"m 444 -172 l 444 -172 l 14 -172 q 9 -163 5 -148 q 0 -134 0 -116 l 0 -116 q 0 -84 15 -69 q 30 -55 55 -55 l 55 -55 l 484 -55 q 489 -64 494 -80 q 498 -96 498 -113 l 498 -113 q 498 -145 483 -158 q 468 -172 444 -172 z"},"`":{"x_min":26,"x_max":244,"ha":302,"o":"m 125 551 l 125 551 l 28 643 q 27 647 27 654 q 26 660 26 664 l 26 664 q 26 696 45 714 q 63 732 90 732 l 90 732 q 108 732 124 725 q 140 717 155 699 l 155 699 l 244 588 q 241 558 223 543 q 204 527 182 527 l 182 527 q 164 527 151 533 q 138 539 125 551 z"},"a":{"x_min":32,"x_max":477,"ha":533,"o":"m 255 95 l 255 95 q 278 95 301 100 q 323 104 333 110 l 333 110 l 333 206 l 249 198 q 215 196 195 184 q 175 172 175 148 l 175 148 q 175 124 194 110 q 213 95 255 95 z m 249 495 l 249 495 q 353 495 415 452 q 477 408 477 317 l 477 317 l 477 90 q 477 65 464 50 q 451 34 431 23 l 431 23 q 401 5 357 -5 q 312 -16 255 -16 l 255 -16 q 153 -16 93 24 q 32 64 32 143 l 32 143 q 32 211 74 248 q 116 284 199 292 l 199 292 l 332 306 l 332 318 q 332 352 306 367 q 279 382 230 382 l 230 382 q 192 382 156 373 q 119 364 90 352 l 90 352 q 78 360 70 377 q 61 393 61 411 l 61 411 q 61 453 107 472 l 107 472 q 136 484 175 490 q 213 495 249 495 z"},"b":{"x_min":60,"x_max":545,"ha":580,"o":"m 312 495 l 312 495 q 377 495 430 467 q 483 438 514 382 q 545 325 545 242 l 545 242 q 545 158 513 101 q 480 44 421 15 q 362 -15 283 -15 l 283 -15 q 221 -15 177 0 q 132 15 102 35 l 102 35 q 81 50 71 68 q 60 86 60 110 l 60 110 l 60 651 q 69 654 87 657 q 105 660 126 660 l 126 660 q 169 660 189 645 q 208 630 208 590 l 208 590 l 208 472 q 222 478 238 484 l 238 484 q 271 495 312 495 z m 207 355 l 207 355 l 207 121 q 219 114 238 108 q 257 102 281 102 l 281 102 q 332 102 363 137 q 393 172 393 242 l 393 242 q 393 313 364 346 q 334 378 285 378 l 285 378 q 253 378 228 366 l 228 366 q 217 361 207 355 z"},"c":{"x_min":35,"x_max":451,"ha":486,"o":"m 317 377 l 317 377 q 263 377 225 342 q 186 306 186 238 l 186 238 q 186 171 223 137 q 260 103 316 103 l 316 103 q 349 103 374 112 q 398 120 416 130 l 416 130 q 433 118 442 104 q 451 89 451 68 l 451 68 q 451 31 411 8 q 371 -15 300 -15 l 300 -15 q 221 -15 161 14 q 101 42 68 99 q 35 156 35 238 l 35 238 q 35 325 71 382 q 107 438 167 467 q 226 495 296 495 l 296 495 q 365 495 405 470 q 444 445 444 408 l 444 408 q 444 390 436 376 q 427 361 416 350 l 416 350 q 397 360 373 369 q 348 377 317 377 z"},"d":{"x_min":35,"x_max":517,"ha":577,"o":"m 369 480 l 369 480 l 369 651 q 378 654 396 657 q 414 660 435 660 l 435 660 q 479 660 498 645 q 517 630 517 590 l 517 590 l 517 100 q 517 76 507 60 q 497 43 475 30 l 475 30 q 448 12 405 -1 q 361 -15 304 -15 l 304 -15 q 221 -15 161 13 q 100 41 68 98 q 35 154 35 238 l 35 238 q 35 326 69 383 q 102 439 159 467 q 216 495 285 495 l 285 495 q 321 495 349 487 l 349 487 q 360 484 369 480 z m 369 119 l 369 119 l 369 363 q 364 365 358 368 l 358 368 q 335 378 305 378 l 305 378 q 270 378 243 363 q 216 348 201 317 q 186 286 186 238 l 186 238 q 186 168 218 135 q 249 102 303 102 l 303 102 q 325 102 342 108 q 359 113 369 119 z"},"e":{"x_min":35,"x_max":509,"ha":542,"o":"m 445 217 l 183 178 q 195 139 225 121 l 225 121 q 263 97 315 97 l 315 97 q 357 97 394 109 q 431 121 454 134 l 454 134 q 469 125 479 109 q 488 93 488 75 l 488 75 q 488 45 465 25 q 441 5 400 -5 q 358 -15 305 -15 l 305 -15 q 228 -15 167 14 q 105 43 70 101 q 35 159 35 246 l 35 246 q 35 310 56 357 q 76 404 111 435 q 145 465 189 480 q 232 495 279 495 l 279 495 q 348 495 400 468 q 451 440 480 393 q 509 346 509 284 l 509 284 q 509 253 492 237 q 475 221 445 217 l 445 217 z m 174 278 l 174 278 l 369 309 q 367 337 345 361 q 323 385 280 385 l 280 385 q 235 385 205 355 l 205 355 q 178 327 174 278 z"},"f":{"x_min":60,"x_max":410,"ha":423,"o":"m 201 485 l 201 485 l 201 445 l 373 445 q 378 437 383 422 q 388 407 388 389 l 388 389 q 388 358 375 345 q 361 331 337 331 l 337 331 l 208 331 l 208 1 q 198 -2 180 -4 q 162 -7 141 -7 l 141 -7 q 99 -7 80 8 q 60 23 60 62 l 60 62 l 60 490 q 60 556 88 597 q 115 638 164 658 q 212 677 271 677 l 271 677 q 341 677 376 659 q 410 640 410 599 l 410 599 q 410 581 403 567 q 395 553 386 545 l 386 545 q 367 551 345 555 q 323 559 296 559 l 296 559 q 249 559 225 542 q 201 525 201 485 z"},"g":{"x_min":35,"x_max":500,"ha":558,"o":"m 256 19 l 256 19 q 197 19 147 42 q 96 64 66 117 q 35 169 35 254 l 35 254 q 35 333 67 387 q 98 440 155 468 q 212 495 287 495 l 287 495 q 341 495 388 481 q 434 466 460 449 l 460 449 q 478 437 489 421 q 500 404 500 379 l 500 379 l 500 1 q 500 -69 468 -113 q 435 -157 380 -178 q 324 -199 255 -199 l 255 -199 q 203 -199 163 -190 q 122 -181 101 -167 l 101 -167 q 67 -145 67 -105 l 67 -105 q 67 -84 76 -67 q 84 -51 96 -43 l 96 -43 q 123 -59 160 -70 q 197 -82 238 -82 l 238 -82 q 294 -82 327 -61 q 360 -41 360 5 l 360 5 l 360 39 q 346 33 329 28 l 329 28 q 299 19 256 19 z m 357 154 l 357 154 l 357 362 q 346 368 331 373 q 315 378 292 378 l 292 378 q 244 378 214 348 q 183 318 183 254 l 183 254 q 183 184 212 158 q 240 131 283 131 l 283 131 q 316 131 338 143 l 338 143 q 348 148 357 154 z"},"h":{"x_min":60,"x_max":519,"ha":577,"o":"m 60 62 l 60 264 l 60 651 q 69 654 87 657 q 105 660 126 660 l 126 660 q 169 660 189 645 q 208 630 208 590 l 208 590 l 208 472 q 222 478 239 484 l 239 484 q 273 495 314 495 l 314 495 q 409 495 464 447 q 519 398 519 301 l 519 301 l 519 1 q 509 -2 491 -4 q 473 -7 452 -7 l 452 -7 q 409 -7 390 8 q 370 23 370 62 l 370 62 l 370 293 q 370 339 347 359 q 323 378 287 378 l 287 378 q 255 378 230 366 l 230 366 q 218 361 208 355 l 208 355 l 208 1 q 198 -2 180 -4 q 162 -7 141 -7 l 141 -7 q 99 -7 80 8 q 60 23 60 62 l 60 62 z"},"i":{"x_min":53,"x_max":219,"ha":272,"o":"m 62 62 l 62 264 l 62 474 q 71 477 90 480 q 108 483 129 483 l 129 483 q 172 483 191 469 q 210 454 210 413 l 210 413 l 210 1 q 201 -2 183 -4 q 165 -7 144 -7 l 144 -7 q 101 -7 82 8 q 62 23 62 62 l 62 62 z m 53 618 l 53 618 q 53 652 77 675 q 100 698 136 698 l 136 698 q 173 698 196 675 q 219 652 219 618 l 219 618 q 219 585 196 561 q 173 537 136 537 l 136 537 q 100 537 77 561 q 53 585 53 618 z"},"j":{"x_min":-4,"x_max":220,"ha":276,"o":"m -4 -113 l -4 -113 q 20 -101 36 -86 q 51 -72 59 -52 q 66 -32 66 -2 l 66 -2 l 66 474 q 76 477 94 480 q 112 483 133 483 l 133 483 q 176 483 196 469 q 215 454 215 413 l 215 413 l 215 -18 q 215 -81 195 -120 q 175 -159 145 -177 q 114 -195 79 -195 l 79 -195 q 41 -195 19 -171 q -3 -148 -4 -113 z m 54 618 l 54 618 q 54 652 77 675 q 100 698 137 698 l 137 698 q 173 698 197 675 q 220 652 220 618 l 220 618 q 220 585 197 561 q 173 537 137 537 l 137 537 q 100 537 77 561 q 54 585 54 618 z"},"k":{"x_min":60,"x_max":510,"ha":539,"o":"m 60 62 l 60 265 l 60 651 q 69 654 87 657 q 105 660 126 660 l 126 660 q 169 660 189 645 q 208 630 208 590 l 208 590 l 208 303 l 391 488 q 436 487 464 467 q 491 447 491 417 l 491 417 q 491 391 473 371 q 455 350 418 318 l 418 318 l 335 246 l 510 77 q 506 37 486 15 q 466 -8 429 -8 l 429 -8 q 402 -8 380 6 q 357 19 332 50 l 332 50 l 208 196 l 208 1 q 198 -2 180 -4 q 162 -7 141 -7 l 141 -7 q 99 -7 80 8 q 60 23 60 62 l 60 62 z"},"l":{"x_min":63,"x_max":212,"ha":275,"o":"m 63 62 l 63 264 l 63 651 q 73 654 91 657 q 109 660 130 660 l 130 660 q 173 660 193 645 q 212 630 212 590 l 212 590 l 212 1 q 202 -2 184 -4 q 166 -7 145 -7 l 145 -7 q 103 -7 83 8 q 63 23 63 62 l 63 62 z"},"m":{"x_min":58,"x_max":781,"ha":840,"o":"m 494 331 l 494 331 l 494 1 q 484 -2 466 -4 q 448 -7 427 -7 l 427 -7 q 384 -7 365 8 q 345 23 345 62 l 345 62 l 345 312 q 345 346 325 362 q 305 378 275 378 l 275 378 q 253 378 236 372 q 218 365 206 358 l 206 358 l 206 1 q 196 -2 178 -4 q 160 -7 139 -7 l 139 -7 q 97 -7 78 8 q 58 23 58 62 l 58 62 l 58 373 q 58 398 69 415 q 79 431 99 444 l 99 444 q 132 467 180 481 q 228 495 280 495 l 280 495 q 328 495 370 480 l 370 480 q 402 468 428 447 l 428 447 q 453 464 482 477 l 482 477 q 524 495 585 495 l 585 495 q 637 495 682 477 q 727 459 754 420 q 781 381 781 316 l 781 316 l 781 1 q 772 -2 754 -4 q 736 -7 715 -7 l 715 -7 q 672 -7 653 8 q 633 23 633 62 l 633 62 l 633 312 q 633 346 614 362 q 595 378 564 378 l 564 378 q 541 378 521 369 l 521 369 q 505 361 492 352 l 492 352 q 494 341 494 331 z"},"n":{"x_min":58,"x_max":517,"ha":575,"o":"m 517 311 l 517 311 l 517 1 q 507 -2 489 -4 q 471 -7 450 -7 l 450 -7 q 408 -7 388 8 q 368 23 368 62 l 368 62 l 368 306 q 368 343 347 361 q 325 378 290 378 l 290 378 q 265 378 244 372 q 223 365 206 356 l 206 356 l 206 1 q 196 -2 178 -4 q 160 -7 139 -7 l 139 -7 q 97 -7 78 8 q 58 23 58 62 l 58 62 l 58 373 q 58 398 69 415 q 79 431 99 444 l 99 444 q 131 466 181 481 q 231 495 291 495 l 291 495 q 399 495 458 448 q 517 400 517 311 z"},"o":{"x_min":35,"x_max":543,"ha":578,"o":"m 543 240 l 543 240 q 543 162 512 105 q 480 47 423 16 q 366 -15 289 -15 l 289 -15 q 213 -15 156 16 q 98 46 67 104 q 35 161 35 240 l 35 240 q 35 319 67 376 q 99 432 157 464 q 214 495 289 495 l 289 495 q 365 495 422 464 q 479 432 511 375 q 543 317 543 240 z m 289 378 l 289 378 q 242 378 215 342 q 187 306 187 240 l 187 240 q 187 173 214 138 q 241 102 289 102 l 289 102 q 337 102 364 138 q 391 174 391 240 l 391 240 q 391 305 364 342 q 337 378 289 378 z"},"p":{"x_min":58,"x_max":540,"ha":576,"o":"m 296 -15 l 296 -15 q 366 -15 421 15 q 476 44 508 101 q 540 158 540 243 l 540 243 q 540 331 507 387 q 474 442 415 469 q 355 495 278 495 l 278 495 q 221 495 175 483 q 129 470 99 451 l 99 451 q 78 438 68 422 q 58 405 58 380 l 58 380 l 58 -117 q 58 -157 78 -172 q 97 -187 139 -187 l 139 -187 q 160 -187 178 -184 q 196 -181 206 -178 l 206 -178 l 206 2 q 216 -2 228 -5 l 228 -5 q 258 -15 296 -15 z m 205 122 l 205 122 l 205 359 q 218 367 237 373 q 255 378 278 378 l 278 378 q 312 378 337 364 q 362 350 376 321 q 389 291 389 243 l 389 243 q 389 173 359 138 q 328 103 273 103 l 273 103 q 242 103 218 115 l 218 115 q 211 118 205 122 z"},"q":{"x_min":35,"x_max":518,"ha":577,"o":"m 370 -120 l 370 1 q 357 -5 341 -8 l 341 -8 q 313 -15 280 -15 l 280 -15 q 209 -15 154 13 q 99 41 67 98 q 35 154 35 238 l 35 238 q 35 323 69 380 q 103 437 163 466 q 223 495 303 495 l 303 495 q 357 495 405 482 q 452 468 478 451 l 478 451 q 496 439 507 422 q 518 405 518 380 l 518 380 l 518 -181 q 509 -184 491 -187 q 472 -190 451 -190 l 451 -190 q 409 -190 390 -175 q 370 -160 370 -120 l 370 -120 z m 370 120 l 370 120 l 370 362 q 360 368 344 373 q 328 378 306 378 l 306 378 q 270 378 243 363 q 216 348 201 317 q 186 286 186 238 l 186 238 q 186 168 217 135 q 248 102 302 102 l 302 102 q 330 102 351 111 l 351 111 q 361 115 370 120 z"},"r":{"x_min":58,"x_max":388,"ha":404,"o":"m 206 351 l 206 351 l 206 1 q 196 -2 178 -4 q 160 -7 139 -7 l 139 -7 q 97 -7 78 8 q 58 23 58 62 l 58 62 l 58 369 q 58 397 72 417 q 85 436 109 451 l 109 451 q 142 471 189 483 q 235 494 286 494 l 286 494 q 388 494 388 426 l 388 426 q 388 410 384 396 q 379 382 373 372 l 373 372 q 363 374 349 376 q 334 377 317 377 l 317 377 q 287 377 257 370 q 227 363 206 351 z"},"s":{"x_min":43,"x_max":447,"ha":481,"o":"m 447 140 l 447 140 q 447 67 392 26 q 337 -16 232 -16 l 232 -16 q 150 -16 97 8 q 44 32 44 79 l 44 79 q 44 100 53 116 q 62 131 76 140 l 76 140 q 104 124 142 111 q 179 97 227 97 l 227 97 q 300 97 300 139 l 300 139 q 300 157 287 168 q 274 178 244 183 l 244 183 l 202 193 q 122 210 83 246 q 43 281 43 343 l 43 343 q 43 413 100 455 q 156 496 252 496 l 252 496 q 300 496 340 487 q 379 477 402 458 q 425 438 425 409 l 425 409 q 425 389 417 374 q 409 359 396 349 l 396 349 q 385 356 363 364 q 340 372 314 377 q 287 382 264 382 l 264 382 q 228 382 208 373 q 188 363 188 343 l 188 343 q 188 330 200 321 q 211 311 240 305 l 240 305 l 280 295 q 369 275 408 238 q 447 200 447 140 z"},"t":{"x_min":59,"x_max":360,"ha":391,"o":"m 59 147 l 59 264 l 59 598 q 69 601 87 605 q 105 608 125 608 l 125 608 q 168 608 187 593 q 206 578 206 538 l 206 538 l 206 469 l 345 469 q 350 461 355 446 q 360 431 360 413 l 360 413 q 360 383 347 369 q 333 355 310 355 l 310 355 l 206 355 l 206 157 q 206 129 224 116 q 242 103 275 103 l 275 103 q 290 103 308 107 q 325 110 337 115 l 337 115 q 345 106 352 93 q 358 80 358 63 l 358 63 q 358 29 330 7 q 302 -15 236 -15 l 236 -15 q 152 -15 106 23 q 59 61 59 147 l 59 147 z"},"u":{"x_min":58,"x_max":517,"ha":574,"o":"m 58 187 l 58 187 l 58 478 q 67 481 85 484 q 103 487 124 487 l 124 487 q 167 487 187 473 q 206 458 206 417 l 206 417 l 206 188 q 206 142 230 122 q 253 102 296 102 l 296 102 q 323 102 341 107 q 359 112 368 117 l 368 117 l 368 478 q 378 481 396 484 q 414 487 435 487 l 435 487 q 478 487 498 473 q 517 458 517 417 l 517 417 l 517 99 q 517 75 508 58 q 498 41 477 28 l 477 28 q 445 8 399 -3 q 352 -15 295 -15 l 295 -15 q 224 -15 171 6 q 117 27 88 72 q 58 116 58 187 z"},"v":{"x_min":22,"x_max":506,"ha":533,"o":"m 434 490 l 434 490 q 465 490 486 477 q 506 463 506 431 l 506 431 q 506 413 496 375 q 486 337 470 287 q 453 237 433 185 q 413 133 393 88 q 373 42 357 12 l 357 12 q 346 4 322 -2 q 298 -9 269 -9 l 269 -9 q 235 -9 211 0 q 186 9 176 28 l 176 28 q 165 49 149 87 q 133 125 115 174 q 97 222 79 274 q 61 326 46 374 q 31 422 22 458 l 22 458 q 35 471 56 481 q 76 490 100 490 l 100 490 q 131 490 151 477 q 171 464 180 428 l 180 428 l 225 269 q 233 241 242 213 q 250 185 257 161 q 264 137 269 120 l 269 120 l 273 120 q 297 201 322 294 q 346 386 365 474 l 365 474 q 395 490 434 490 z"},"w":{"x_min":27,"x_max":747,"ha":776,"o":"m 392 290 l 392 290 q 381 240 365 187 q 349 134 335 88 q 320 42 311 14 l 311 14 q 299 4 278 -2 q 257 -9 228 -9 l 228 -9 q 194 -9 168 1 q 141 11 132 30 l 132 30 q 123 50 112 87 q 100 124 88 172 q 76 219 65 271 q 53 323 43 372 q 33 420 27 459 l 27 459 q 39 471 60 481 q 80 490 105 490 l 105 490 q 136 490 156 476 q 175 461 179 427 l 179 427 q 189 359 197 309 q 205 258 212 222 q 218 186 223 164 q 227 141 230 128 l 230 128 l 234 128 q 240 151 252 199 q 264 246 281 308 q 298 369 315 432 l 315 432 q 332 442 350 447 q 368 452 392 452 l 392 452 q 423 452 445 442 q 467 432 473 412 l 473 412 q 491 351 507 294 q 522 237 534 194 q 546 150 551 128 l 551 128 l 556 128 q 570 208 584 296 q 598 384 609 472 l 609 472 q 640 490 677 490 l 677 490 q 708 490 728 477 q 747 463 747 431 l 747 431 q 747 416 742 385 q 737 354 728 314 q 719 273 708 228 q 697 183 686 141 q 674 99 664 66 q 654 33 646 14 l 646 14 q 635 4 610 -2 q 585 -9 556 -9 l 556 -9 q 482 -9 469 27 l 469 27 q 460 54 446 97 q 431 140 417 191 q 403 241 392 290 z"},"x":{"x_min":29,"x_max":489,"ha":513,"o":"m 167 246 l 167 246 q 138 280 110 315 l 110 315 q 70 363 29 412 l 29 412 q 36 445 57 466 q 78 487 108 487 l 108 487 q 137 487 153 473 q 169 459 188 433 l 188 433 q 215 398 243 361 l 243 361 q 253 347 263 333 l 263 333 q 287 363 309 393 l 309 393 q 343 438 378 486 l 378 486 q 382 487 386 487 l 386 487 l 393 487 q 434 487 458 470 q 482 452 482 424 l 482 424 q 482 402 471 385 q 460 367 433 335 l 433 335 q 406 304 379 273 l 379 273 q 365 257 352 242 l 352 242 q 381 204 411 166 l 411 166 q 451 114 489 62 l 489 62 q 485 29 464 10 q 442 -10 411 -10 l 411 -10 q 379 -9 359 9 q 339 27 319 54 l 319 54 q 294 90 268 127 l 268 127 q 260 139 252 150 l 252 150 q 231 121 210 91 l 210 91 q 175 42 141 -7 l 141 -7 q 137 -7 131 -7 q 125 -8 121 -8 l 121 -8 q 78 -8 55 11 q 31 29 31 56 l 31 56 q 31 76 41 92 q 50 108 75 137 l 75 137 q 108 177 143 218 l 143 218 q 155 232 167 246 z"},"y":{"x_min":22,"x_max":510,"ha":536,"o":"m 138 119 l 138 119 q 122 152 104 199 q 85 246 65 310 q 45 374 22 458 l 22 458 q 35 471 56 481 q 76 490 100 490 l 100 490 q 131 490 151 477 q 171 464 181 428 l 181 428 q 204 355 227 283 q 250 211 274 138 l 274 138 l 278 138 q 295 183 313 240 q 330 297 345 358 q 360 418 371 474 l 371 474 q 385 481 401 486 q 417 490 434 490 l 434 490 q 465 490 488 477 q 510 463 510 431 l 510 431 q 510 403 502 362 q 493 321 479 274 q 465 226 446 177 q 427 127 407 81 q 386 35 365 -2 l 365 -2 q 311 -96 266 -142 q 220 -189 175 -189 l 175 -189 q 139 -189 116 -167 q 92 -145 87 -111 l 87 -111 q 109 -93 132 -69 q 155 -46 176 -19 q 197 7 213 33 l 213 33 q 196 38 178 55 q 160 72 138 119 z"},"z":{"x_min":37,"x_max":449,"ha":478,"o":"m 399 0 l 108 0 l 67 0 q 53 12 45 29 q 37 46 37 66 l 37 66 q 37 84 46 102 q 54 119 66 134 l 66 134 l 259 364 l 56 364 q 51 374 46 390 q 41 405 41 421 l 41 421 q 41 452 55 466 q 69 479 92 479 l 92 479 l 408 479 q 422 467 431 451 q 439 434 439 413 l 439 413 q 439 395 431 378 q 422 361 409 345 l 409 345 l 220 115 l 434 115 q 440 107 445 92 q 449 76 449 58 l 449 58 q 449 28 436 14 q 422 0 399 0 l 399 0 z"},"{":{"x_min":27,"x_max":296,"ha":324,"o":"m 181 268 l 181 268 q 209 254 224 225 q 238 196 238 151 l 238 151 l 238 35 q 238 1 254 -13 q 270 -28 294 -33 l 294 -33 q 296 -39 296 -46 l 296 -46 l 296 -59 q 296 -96 276 -113 q 255 -130 221 -130 l 221 -130 q 169 -130 136 -96 q 102 -62 102 6 l 102 6 l 102 114 q 102 160 86 185 q 69 209 34 217 l 34 217 q 31 228 29 241 q 27 254 27 268 q 27 282 29 295 q 31 308 34 319 l 34 319 q 69 327 86 352 q 102 377 102 422 l 102 422 l 102 526 q 102 595 137 629 q 171 662 223 662 l 223 662 q 258 662 277 646 q 296 630 296 591 l 296 591 l 296 579 q 296 572 294 565 l 294 565 q 270 560 254 546 q 238 531 238 496 l 238 496 l 238 385 q 238 340 224 311 q 209 282 181 268 z"},"|":{"x_min":71,"x_max":203,"ha":274,"o":"m 203 619 l 203 619 l 203 -172 q 194 -174 178 -176 q 161 -179 144 -179 l 144 -179 q 109 -179 90 -167 q 71 -155 71 -116 l 71 -116 l 71 676 q 80 678 97 681 q 113 683 130 683 l 130 683 q 165 683 184 671 q 203 658 203 619 z"},"}":{"x_min":28,"x_max":296,"ha":324,"o":"m 143 268 l 143 268 q 115 282 100 311 q 85 340 85 385 l 85 385 l 85 496 q 85 531 70 546 q 54 560 30 565 l 30 565 q 29 572 29 579 q 28 585 28 591 l 28 591 q 28 630 47 646 q 65 662 100 662 l 100 662 q 152 662 187 629 q 222 595 222 526 l 222 526 l 222 422 q 222 377 238 352 q 254 327 289 319 l 289 319 q 292 308 294 295 q 296 282 296 268 l 296 268 q 296 254 295 241 q 293 228 289 217 l 289 217 q 254 209 238 185 q 222 160 222 114 l 222 114 l 222 6 q 222 -62 188 -96 q 154 -130 102 -130 l 102 -130 q 69 -130 49 -113 q 28 -96 28 -59 l 28 -59 q 28 -53 29 -46 q 29 -39 30 -33 l 30 -33 q 54 -28 70 -13 q 85 1 85 35 l 85 35 l 85 151 q 85 196 100 225 q 115 254 143 268 z"},"~":{"x_min":20,"x_max":472,"ha":490,"o":"m 322 306 l 322 306 q 347 306 360 319 q 373 332 381 348 l 381 348 q 418 348 445 325 q 472 302 472 266 l 472 266 q 472 219 438 195 q 404 171 357 171 l 357 171 q 324 171 293 180 q 261 188 231 197 q 200 206 169 206 l 169 206 q 143 206 130 192 q 117 177 109 165 l 109 165 q 73 165 47 188 q 20 210 20 247 l 20 247 q 20 279 37 300 q 54 321 80 331 q 106 341 133 341 l 133 341 q 169 341 201 333 q 233 324 263 315 q 293 306 322 306 z"}}}
